<svg xmlns="http://www.w3.org/2000/svg" width="880" height="250" viewBox="0 0 880 250" role="img"><style>
text{font-family:-apple-system,BlinkMacSystemFont,'Segoe UI',Helvetica,Arial,sans-serif}
.ttl{font-size:15px;font-weight:600;fill:#1f2328}
.sub{font-size:11px;fill:#656d76}
.lbl{font-size:12px;fill:#1f2328}
.val{font-size:11px;font-weight:600;fill:#1f2328}
.note{font-size:11px;fill:#656d76}
.ax{stroke:#d0d7de;stroke-width:1}
.grid{stroke:#d0d7de;stroke-width:1;stroke-dasharray:2 3;opacity:.7}
@media (prefers-color-scheme:dark){
.ttl,.lbl,.val{fill:#e6edf3}
.sub,.note{fill:#9198a1}
.ax,.grid{stroke:#3d444d}
}
</style><text class="ttl" x="16" y="24">Second run over the same input: zero calls, zero cost</text><text class="sub" x="16" y="42">coldrun/metrics.json vs output/metrics.json - same clip, same parameters</text><rect x="68.0" y="92.0" width="46" height="104.0" rx="3" fill="#f59e0b"/><text class="val" x="91.0" y="85.0" text-anchor="middle">18.255 s</text><text class="sub" x="91.0" y="212" text-anchor="middle">cold</text><rect x="142.0" y="189.5" width="46" height="6.5" rx="3" fill="#10b981"/><text class="val" x="165.0" y="182.5" text-anchor="middle">1.135 s</text><text class="sub" x="165.0" y="212" text-anchor="middle">warm</text><line class="ax" x1="56.0" y1="196" x2="274.6666666666667" y2="196"/><text class="lbl" x="56.0" y="66">Wall clock</text><rect x="350.6666666666667" y="92.0" width="46" height="104.0" rx="3" fill="#f59e0b"/><text class="val" x="373.6666666666667" y="85.0" text-anchor="middle">15</text><text class="sub" x="373.6666666666667" y="212" text-anchor="middle">cold</text><rect x="424.6666666666667" y="194.0" width="46" height="2.0" rx="3" fill="#10b981"/><text class="val" x="447.6666666666667" y="187.0" text-anchor="middle">0</text><text class="sub" x="447.6666666666667" y="212" text-anchor="middle">warm</text><line class="ax" x1="338.6666666666667" y1="196" x2="557.3333333333334" y2="196"/><text class="lbl" x="338.6666666666667" y="66">Network calls</text><rect x="633.3333333333334" y="92.0" width="46" height="104.0" rx="3" fill="#f59e0b"/><text class="val" x="656.3333333333334" y="85.0" text-anchor="middle">₹2.1610</text><text class="sub" x="656.3333333333334" y="212" text-anchor="middle">cold</text><rect x="707.3333333333334" y="194.0" width="46" height="2.0" rx="3" fill="#10b981"/><text class="val" x="730.3333333333334" y="187.0" text-anchor="middle">₹0.0000</text><text class="sub" x="730.3333333333334" y="212" text-anchor="middle">warm</text><line class="ax" x1="621.3333333333334" y1="196" x2="840.0" y2="196"/><text class="lbl" x="621.3333333333334" y="66">Cost</text><text class="note" x="16" y="236">--dry-run turns any cache miss into a hard failure, so the zero is enforced, not hoped for. Cache avoided ₹2.161 on this run.</text></svg>
